<?xml version="1.0" encoding="utf-8"?>
<!-- Generator: Adobe Illustrator 23.1.0, SVG Export Plug-In . SVG Version: 6.00 Build 0)  -->
<svg version="1.1" id="Слой_1" xmlns="http://www.w3.org/2000/svg" xmlns:xlink="http://www.w3.org/1999/xlink" x="0px" y="0px"
	 viewBox="0 0 86 32" style="enable-background:new 0 0 86 32;" xml:space="preserve">
<style type="text/css">
	.st0{fill-rule:evenodd;clip-rule:evenodd;fill:#F5F6F6;}
</style>
<g>
	<path class="st0" d="M84,0c1.1,0,2,0.9,2,2V0H84z"/>
	<path class="st0" d="M0,30v2h2C0.9,32,0,31.1,0,30z"/>
	<path class="st0" d="M2,0H0v2C0,0.9,0.9,0,2,0z"/>
	<path class="st0" d="M84,13.7H53c-1.1,0-2-0.9-2-2V2c0-1.1,0.9-2,2-2H33c1.1,0,2,0.9,2,2v9.7c0,1.1-0.9,2-2,2H21.1
		c-1.1,0-2-0.9-2-2V2c0-1.1,0.9-2,2-2h-7.2c1.1,0,2,0.9,2,2v9.7c0,1.1-0.9,2-2,2H2c-1.1,0-2-0.9-2-2v8.7c0-1.1,0.9-2,2-2h11.9
		c1.1,0,2,0.9,2,2V30c0,1.1-0.9,2-2,2h7.2c-1.1,0-2-0.9-2-2v-9.7c0-1.1,0.9-2,2-2H33c1.1,0,2,0.9,2,2V30c0,1.1-0.9,2-2,2h20
		c-1.1,0-2-0.9-2-2v-9.7c0-1.1,0.9-2,2-2h31c1.1,0,2,0.9,2,2v-8.7C86,12.8,85.1,13.7,84,13.7z"/>
	<path class="st0" d="M84,32h2v-2C86,31.1,85.1,32,84,32z"/>
</g>
</svg>
