<svg xmlns="http://www.w3.org/2000/svg" width="236" height="36" viewBox="0 0 236 36">
  <defs>
    <style>
      .cls-1 {
        fill: #0aaee4;
        fill-rule: evenodd;
      }
    </style>
  </defs>
  <path id="Shape_1_copy_4" data-name="Shape 1 copy 4" class="cls-1" d="M36,13.5H22.22L18,0,13.783,13.5H0l11.165,8.374L6.75,36,18,27l11.25,9L24.836,21.873Zm50,0H72.22L68,0l-4.22,13.5H50l11.165,8.374L56.75,36,68,27l11.25,9L74.836,21.873Zm50,0H122.22L118,0l-4.219,13.5H100l11.165,8.374L106.75,36,118,27l11.25,9-4.414-14.127Zm50,0H172.22L168,0l-4.219,13.5H150l11.165,8.374L156.75,36,168,27l11.25,9-4.414-14.127Zm50,0H222.22L218,0l-4.219,13.5H200l11.165,8.374L206.75,36,218,27l11.25,9-4.414-14.127Z"/>
</svg>
